<?xml version="1.0" encoding="UTF-8"?>
<svg id="Layer_11" data-name="Layer 11" xmlns="http://www.w3.org/2000/svg" viewBox="0 0 792 612">
  <g>
    <path d="M409.4,319.11c.12,10.67,20.27,32.25,18.46,46.33-2.15,16.7-24.56,19.62-36.79,19.62-12.09,0-34.63-3.08-36.86-19.62-1.86-13.8,18.09-35.54,18.21-46.33.13-11.26-20.92-34.2-18.75-49.34,2.44-17,24.92-20.24,37.39-20.24,12.4,0,35,3.2,37.33,20.24,2.13,15.56-19.13,37.59-19,49.34Z" fill="none" stroke="#d8a275" stroke-miterlimit="10" stroke-width="10"/>
    <path d="M412.47,319.14c.03,11.9,22.51,33.97,19.88,49.25-3,17.34-28.9,20.67-41.28,20.67-12.58,0-38.25-3.32-41.34-20.67-2.65-14.88,19.58-37.92,19.61-49.25.03-12.04-22.47-36.37-19.61-52.24,3.22-17.86,28.15-21.37,41.34-21.37,13.04,0,38.17,3.49,41.28,21.37,2.84,16.32-19.91,39.64-19.88,52.24Z" fill="none" stroke="#414042" stroke-miterlimit="10" stroke-width="5"/>
    <path d="M407.05,319.07c.04,9.95,18.58,30.36,17.14,43.59-1.72,15.77-21.51,18.4-33.1,18.4-11.49,0-31.43-2.81-33.19-18.4-1.47-13.01,16.86-33.5,16.9-43.59.04-10.89-18.34-32.09-16.87-46.23,1.68-16.17,21.06-19.27,33.17-19.27,12.12,0,31.49,2.89,33.07,19.27,1.39,14.4-17.15,35.48-17.11,46.23Z" fill="#fff"/>
    <path d="M402.93,319.91c.47,11.3,13.23,41.71-11.87,41.02-25.28-.7-12.58-28.34-12.06-41.02.49-11.97-12.17-42.52,12.06-43.23,24.11-.71,11.44,32.88,11.87,43.23Z" fill="#dddcd8"/>
  </g>
  <path d="M369.8,227.22c-.16-.08-.27-.29-.33-.58-.8-8.81,3.09-25.12,13.98-24.93,3.23-.11,6.01,1.99,7.39,4.81,1.27,2.46,1.14,5.55-.43,7.83-1.14,1.64-2.84,2.92-4.74,3.51-1.1.31-2.09.34-3.24.62-.8.18-1.6.41-2.38.7-2.63.91-5.86,4.36-7.8,6.23-.51.48-1.02.98-1.55,1.44-.25.21-.61.48-.89.37h-.02Z" fill="#d8a275"/>
  <path d="M368.43,233.39c-.21-.1-.34-.37-.41-.72-1-11.01,3.86-31.38,17.46-31.15,4.04-.14,7.5,2.48,9.24,6.01,1.58,3.08,1.42,6.93-.53,9.79-1.42,2.05-3.54,3.65-5.92,4.39-1.37.38-2.61.42-4.05.77-1.01.23-2,.51-2.98.87-3.29,1.13-7.32,5.45-9.74,7.79-.64.6-1.28,1.22-1.94,1.79-.31.26-.76.6-1.12.46h-.02Z" fill="none" stroke="#414042" stroke-miterlimit="10" stroke-width="4"/>
  <path d="M354.13,238.11c.17-.21.16-.57.03-1-5.33-12.56-19.81-31.15-34.75-24.05-4.56,1.88-6.87,6.49-6.72,11.23.05,4.17,2.47,8.32,6.31,10.46,2.77,1.54,6.06,2.22,9.13,1.83,1.74-.27,3.14-.85,4.93-1.19,1.25-.26,2.52-.45,3.81-.54,4.31-.41,8.49.99,12.54,2.34,1.06.33,2.13.7,3.2.99.5.13,1.19.28,1.51-.06l.02-.02Z" fill="#eac9b1"/>
  <path d="M359.24,243.78c.21-.26.21-.7.07-1.22-5.8-15.11-22.11-37.25-39.83-28.09-5.4,2.44-8.26,8.14-8.25,13.91-.09,5.08,2.61,10.04,7.02,12.52,3.19,1.78,7.02,2.5,10.62,1.92,2.05-.39,3.71-1.15,5.81-1.62,1.47-.36,2.96-.63,4.47-.79,5.05-.65,9.9.91,14.6,2.41,1.23.37,2.47.78,3.7,1.1.58.14,1.39.3,1.77-.12l.02-.02Z" fill="none" stroke="#414042" stroke-miterlimit="10" stroke-width="4"/>
</svg>