<?xml version="1.0" encoding="UTF-8"?>
<svg id="Layer_3" data-name="Layer 3" xmlns="http://www.w3.org/2000/svg" viewBox="0 0 259.2 259.2">
  <path d="M192.57,87.21c-.88-4.92-.66-8.66-1.05-13.59-.14-2.35-.27-5.01-1.79-6.88-2.28-2.57-6.42-2.04-9.62-1.82-7.59.99-14.56,2.02-21.62.32-5.03-.97-10.13-1.25-15.44-.89-31.49,2.36-60.2,25.89-70.22,55.61-3.62,11.32-4.84,22.35-1.16,33.66,1.11,3.4,2.46,8.52,2.95,12.44.62,4.38,1.61,9.13.51,12.71-1.31,4.29.27,7.7,5.35,7.21,3.71-.34,7.66-.23,10.96.29,5.04.8,13.08,3,18.16,3.53,48.77,6.09,102.44-54.35,83.01-102.41l-.03-.17Z" fill="#fee007"/>
  <path d="M75.54,178.76c-1.31,4.29.27,7.7,5.35,7.21,3.71-.34,7.66-.23,10.96.29,5.04.8,13.08,3,18.16,3.53,36.37,4.54,74.93-28.96,84.4-65.69,0,0-29.48,42.22-61.35,47.99,0,0-32.93,12.24-57.49,4.13l-.02,2.54Z" fill="#fac719"/>
  <path d="M192.14,87.04c-.93-5.24.4-10.64-.02-15.89-.14-2.51-.28-5.34-1.91-7.33-2.43-2.74-6.85-2.18-10.26-1.94-8.09,1.06-15.01-1.08-22.54-2.9-5.36-1.04-10.8-1.33-16.46-.95-33.56,2.51-64.16,27.59-74.83,59.27-3.86,12.06-5.16,23.82-1.23,35.87,1.19,3.62,2.62,9.08,3.14,13.26.66,4.67.03,9.59.55,13.55.63,5.97,5.37,6.52,10.78,5.99,3.95-.36,8.17-.25,11.68.31,5.37.85,10.46,2.87,15.87,3.43,51.98,6.49,105.88-49.77,85.27-102.49l-.04-.18Z" fill="none" stroke="#414042" stroke-miterlimit="10" stroke-width="4"/>
</svg>