<?xml version="1.0" encoding="UTF-8"?>
<svg id="Layer_9" data-name="Layer 9" xmlns="http://www.w3.org/2000/svg" viewBox="0 0 259.2 259.2">
  <path d="M103.5,74.06c-.18-.01-.36-.18-.51-.42-3.93-7.92-6.2-24.53,4.02-28.29,2.97-1.27,6.32-.32,8.63,1.81,2.07,1.84,3.07,4.76,2.44,7.46-.47,1.94-1.59,3.75-3.15,4.99-.91.68-1.83,1.07-2.8,1.75-.68.46-1.35.96-1.97,1.51-2.13,1.8-3.88,6.18-5.01,8.63-.3.63-.6,1.28-.93,1.9-.16.29-.39.67-.7.67h-.02Z" fill="#fee007"/>
  <path d="M104.45,80.31c-.23-.01-.45-.22-.64-.53-4.91-9.9-7.75-30.65,5.02-35.35,3.71-1.59,7.89-.4,10.78,2.27,2.59,2.3,3.84,5.95,3.04,9.32-.58,2.43-1.98,4.69-3.94,6.23-1.14.85-2.28,1.34-3.49,2.18-.86.58-1.68,1.2-2.46,1.89-2.66,2.25-4.85,7.73-6.26,10.79-.38.79-.75,1.6-1.16,2.37-.2.36-.49.84-.88.83h-.02Z" fill="none" stroke="#414042" stroke-miterlimit="10" stroke-width="4"/>
  <path d="M92.82,89.88c.09-.26-.06-.59-.33-.94-9.51-9.78-29.74-21.87-41.1-9.86-3.57,3.4-4.05,8.53-2.2,12.9,1.55,3.87,5.31,6.86,9.67,7.47,3.14.43,6.46-.12,9.17-1.59,1.53-.88,2.62-1.93,4.17-2.89,1.07-.69,2.18-1.33,3.35-1.88,3.87-1.94,8.27-2.15,12.54-2.36,1.11-.07,2.24-.12,3.34-.23.51-.06,1.21-.17,1.38-.6v-.02Z" fill="#fee007"/>
  <path d="M99.63,93.32c.1-.32-.06-.73-.38-1.16-10.87-11.99-34.08-26.73-47.29-11.79-4.15,4.23-4.75,10.58-2.66,15.95,1.75,4.76,6.06,8.42,11.07,9.13,3.62.5,7.44-.21,10.59-2.05,1.77-1.1,3.04-2.41,4.84-3.61,1.24-.86,2.53-1.66,3.88-2.35,4.48-2.43,9.56-2.73,14.48-3.03,1.28-.1,2.59-.17,3.85-.32.59-.08,1.4-.22,1.6-.75v-.03Z" fill="none" stroke="#414042" stroke-miterlimit="10" stroke-width="4"/>
  <g>
    <path d="M205.71,97.66c-1.01-4.89-.96-8.68-1.43-13.56-.22-2.32-.4-5.07-1.98-6.82-2.25-2.5-6.58-1.95-9.67-1.55-7.37.95-14.62,2.24-21.61.93-4.92-.92-10.72-.4-15.46-.46-20.56-.27-18.68,23.39-24.45,36.47-8.25,18.69-33.88,11.2-43.21,22.04-5.76,6.69-4.82,22.52-1.18,32.74,1.2,3.36,2.67,8.48,3.29,12.35.7,4.33,1.87,9.08.87,12.69-1.19,4.32.51,7.67,5.55,7.05,3.69-.45,7.66-.45,10.96-.02,5.05.66,13.21,2.59,18.25,3.02,13.6,1.15,26.64-.46,32.49-13.53,6.1-13.63.59-28.04,16.15-35.82,14.24-7.12,29.35-2.19,34.95-20.08,3.44-10.98.81-25.01-3.49-35.29-.02-.07-.02-.1-.04-.17Z" fill="#fee007"/>
    <path d="M91.31,192.47c-1.19,4.32.51,7.67,5.55,7.05,3.69-.45,7.66-.45,10.96-.02,5.05.66,13.21,2.59,18.25,3.02,6.54.55,18.99.91,24.92-3.35,10.37-7.44,7.48-19.87,10.96-30.54,3.46-10.61,12.13-13.07,21.51-17.62,5.28-2.56,12.31-2.34,16.57-4.57,4.78-2.51,6.49-7.33,6.49-7.33-.11-.04-19.76-.73-30.06,1.83-25.53,6.36-13.64,28.37-26.82,44.42-10.56,12.86-43.58,8.61-58.4,4.57.02,1.02.03,1.52.05,2.54Z" fill="#fac719"/>
    <path d="M205.28,97.5c-1.08-5.22.04-10.69-.46-15.89-.24-2.47-.43-5.4-2.11-7.27-2.4-2.66-7.02-2.07-10.31-1.65-7.85,1.01-17.3.31-24.75-1.08-5.24-.98-8.97-1.9-14.35-1.66-25.24,1.12-19.33,21.23-26.88,38.03-8.97,19.96-37.87,10.05-46,23.56-5.01,8.33-4.55,24.21-.48,35.65,1.28,3.58,2.84,9.04,3.51,13.16.75,4.61.36,9.62.93,13.53.86,5.86,5.57,6.34,10.94,5.68,3.93-.48,8.16-.48,11.68-.02,5.39.7,10.59,2.53,15.96,2.98,13.18,1.12,28.43.43,35.06-12.13,6.81-12.91,1.21-27.77,15.96-35.85,13.67-7.49,29.59-2.17,35.46-19.6,3.72-11.06.46-27.02-4.13-37.26-.02-.07-.02-.11-.04-.18Z" fill="none" stroke="#414042" stroke-miterlimit="10" stroke-width="4"/>
  </g>
</svg>