<?xml version="1.0" encoding="UTF-8"?>
<svg id="Layer_1" data-name="Layer 1" xmlns="http://www.w3.org/2000/svg" viewBox="0 0 259.2 259.2">
  <path d="M117.19,71.98c.89-5.11,3.69-18.52,6.1-22.53.67-1.19,1.43-.92,2.17,0,.38.57,1.27,1.51.86,2.34-.92,1.29-4.34,5.96-6.92,12.97-.85,2.25-1.65,4.93-2.19,7.17v.05Z" fill="#414042" stroke="#414042" stroke-miterlimit="10" stroke-width="3"/>
  <path d="M166.54,175.56c.59-1.79,1.29-3.32,2.08-4.95,6.26-12.21,10.73-29.41,9.2-44.14-3.03-40.16-34.98-70.36-69.17-47.73-14.92,9.88-20.85,31-21.12,49.28-.89,14.86,7.42,62.78,43.53,81.3,8.32,4.12,19.32,11.85,28.23,7.82,4.67-2.2,7.09-9.17,6.7-13.72-.19-3.04-.89-5.85-1.08-8.96-.47-5.87-.3-12.92,1.57-18.72l.06-.19Z" fill="#fac719"/>
  <path d="M168.81,95.8s21.22,28.31-.22,74.81c0,0-8.91,18.69-2.63,32.81,0,0,3.34,12.14-4.32,14.85,0,0-11.55,3.36-18.55-2.72l-6.64-3.32s12.46-1.7,15.75-14.55c3.29-12.85-1.64-10.01,0-22.41s14.67-18.24,17.51-39.75c2.84-21.51-.9-39.73-.9-39.73Z" fill="#f6b320"/>
  <path d="M117.19,71.98s-2.46,22.62-11.57,35.46c-9.11,12.85-17.75,14.06-17.75,14.06,0,0,.42-17.9,10.28-29.42s19.04-20.1,19.04-20.1Z" fill="#f6b320"/>
  <path d="M166.95,177.48c.65-1.89,1.41-3.51,2.27-5.23,6.86-12.91,11.76-31.1,10.08-46.67-3.32-42.47-42.16-73.16-73.51-46.28-14.44,12.82-22.85,32.77-23.14,52.11-.97,15.72,8.13,66.38,47.7,85.96,9.11,4.36,18.88,8.35,28.65,4.09,5.11-2.32,7.77-9.7,7.34-14.51-.21-3.22-.97-6.18-1.19-9.47-.51-6.2-.32-13.66,1.72-19.79l.07-.2Z" fill="none" stroke="#414042" stroke-miterlimit="10" stroke-width="4"/>
  <path d="M65.25,111.06s40.38,6.05,46.89-36.37c0,0-39.5-9.03-46.89,36.37Z" fill="#129a48"/>
  <path d="M67.25,36.06s-2.58,32.26,46.15,31.48c0,0-1-33.95-46.15-31.48Z" fill="#129a48"/>
  <path d="M67.26,36.08s-2.69,37.05,48.1,36.15c0,0-1.05-38.99-48.1-36.15Z" fill="none" stroke="#414042" stroke-linejoin="round" stroke-width="4"/>
  <path d="M60.86,111.46s46.88,7.42,53.22-38.25c0,0-45.93-10.6-53.22,38.25Z" fill="none" stroke="#414042" stroke-linejoin="round" stroke-width="4"/>
</svg>