<?xml version="1.0" encoding="UTF-8"?>
<svg id="Layer_7" data-name="Layer 7" xmlns="http://www.w3.org/2000/svg" viewBox="0 0 792 612">
  <g>
    <path d="M371.11,233.65c.89-5.11,3.69-18.52,6.1-22.53.67-1.19,1.43-.92,2.17,0,.38.57,1.27,1.51.86,2.34-.92,1.29-4.34,5.96-6.92,12.97-.85,2.25-1.65,4.93-2.19,7.17v.05Z" fill="#414042" stroke="#414042" stroke-miterlimit="10" stroke-width="3"/>
    <g>
      <path d="M415.45,337.07c-.99-1.84-1.85-3.51-2.86-5.1-12.83-20.17-13.51-27.21,3.98-44.29,30.43-29.72-22.79-68.58-53.99-47.27-18.44,12.59-21.56,33.42-10.92,50.01,10.31,16.07.49,21.94.24,38.97-.24,16.69,20.26,34.27,33.09,41.6,7.36,4.21,19.73,11.23,28.23,7.82,4.51-1.81,10.14-14.61,9.8-19.11-.23-3-.86-5.87-1.08-8.96-.42-5.82-3.2-7.52-6.39-13.47-.04-.08-.06-.11-.1-.19Z" fill="#fac719"/>
      <path d="M422.73,257.46c.16-.07,6.82,12.52,3.88,19.84-3.88,9.68-17.88,13.97-22.9,22.82-7.21,12.69,1.44,21.55,8.85,31.85,7.3,10.14,6.43,16.44,10.43,27.72,0,0,.24,17.53-7.42,20.24,0,0-11.55,3.36-18.55-2.72-2.66-1.33-3.99-1.99-6.64-3.32,0,0,15.39,1.27,18.5-11.47,2.56-10.51,2.19-18.73-4.78-26.58-11.58-13.05-17.65-26.72-5.34-39.4,12.01-12.37,23.98-38.98,23.98-38.98Z" fill="#f6b320"/>
      <path d="M371.11,233.65s-2.26,20.61-10.61,32.31c-8.35,11.7-16.27,12.81-16.27,12.81,0,0,.38-16.31,9.42-26.81,9.04-10.5,17.45-18.31,17.45-18.31Z" fill="#f6b320"/>
      <path d="M417.44,339.04c-.79-1.94-1.55-3.72-2.5-5.38-12.62-21.83-14.62-28.32,4.15-46.85,29.77-29.38-29.32-72.48-59.37-45.86-19.12,16.94-22.26,33.49-7.27,53.1,14.05,18.4-1.43,21.91-3.63,40.85-2.05,17.71,22.29,36.98,35.46,44.12,7.61,4.13,20.02,7.96,28.65,4.09,5.1-2.29,10.81-15.14,10.44-19.9-.25-3.18-.95-6.21-1.19-9.47-.46-6.15-2.12-8.23-4.67-14.5-.03-.08-.05-.12-.08-.2Z" fill="none" stroke="#414042" stroke-miterlimit="10" stroke-width="4"/>
    </g>
    <path d="M319.17,272.72s40.38,6.05,46.89-36.37c0,0-39.5-9.03-46.89,36.37Z" fill="#129a48"/>
    <path d="M321.17,197.73s-2.58,32.26,46.15,31.48c0,0-1-33.95-46.15-31.48Z" fill="#129a48"/>
    <path d="M321.18,197.75s-2.69,37.05,48.1,36.15c0,0-1.05-38.99-48.1-36.15Z" fill="none" stroke="#414042" stroke-linejoin="round" stroke-width="4"/>
    <path d="M314.78,273.13s46.88,7.42,53.22-38.25c0,0-45.93-10.6-53.22,38.25Z" fill="none" stroke="#414042" stroke-linejoin="round" stroke-width="4"/>
  </g>
  <g>
    <path d="M428.73,231.9c.27.05.58-.14.89-.46,8.39-10.76,17.6-32.45,4.15-42.06-3.85-3.07-9.01-2.85-13.08-.42-3.62,2.07-6.07,6.2-6.08,10.6,0,3.17,1,6.38,2.83,8.87,1.08,1.39,2.27,2.33,3.43,3.74.83.97,1.61,1.98,2.32,3.07,2.45,3.56,3.26,7.9,4.05,12.1.22,1.09.42,2.2.69,3.27.13.5.34,1.18.78,1.29h.02Z" fill="#f6b320"/>
    <path d="M445.85,240.31c-.01-.18.12-.38.35-.57,7.31-4.97,23.46-9.5,28.58.11,1.67,2.77,1.18,6.21-.62,8.8-1.54,2.3-4.3,3.69-7.05,3.43-1.99-.2-3.93-1.06-5.37-2.44-.8-.81-1.31-1.67-2.11-2.53-.55-.62-1.14-1.2-1.77-1.74-2.07-1.86-6.66-3-9.24-3.79-.67-.22-1.35-.42-2.01-.66-.31-.12-.72-.3-.76-.6v-.02Z" fill="#fac719"/>
    <path d="M439.8,242.11c-.02-.23.16-.47.43-.71,9.14-6.21,29.31-11.87,35.71.14,2.08,3.46,1.47,7.77-.77,10.99-1.92,2.88-5.37,4.61-8.82,4.29-2.48-.24-4.92-1.32-6.71-3.05-1-1.01-1.64-2.08-2.64-3.16-.69-.77-1.42-1.5-2.21-2.18-2.59-2.32-8.32-3.75-11.54-4.73-.83-.27-1.69-.52-2.51-.82-.38-.15-.9-.37-.94-.75v-.02Z" fill="none" stroke="#414042" stroke-miterlimit="10" stroke-width="4"/>
    <path d="M426.25,239.12c.33.06.71-.16,1.1-.53,10.39-12.41,21.82-37.42,5.21-48.46-4.76-3.53-11.13-3.26-16.17-.46-4.48,2.39-7.51,7.16-7.54,12.22,0,3.65,1.22,7.35,3.48,10.21,1.33,1.6,2.8,2.68,4.24,4.3,1.02,1.11,1.99,2.28,2.86,3.53,3.02,4.1,4.01,9.1,4.98,13.93.27,1.25.52,2.54.84,3.77.16.58.41,1.36.97,1.48h.03Z" fill="none" stroke="#414042" stroke-miterlimit="10" stroke-width="4"/>
  </g>
</svg>