<?xml version="1.0" encoding="UTF-8"?>
<svg id="Layer_2" data-name="Layer 2" xmlns="http://www.w3.org/2000/svg" viewBox="0 0 792 612">
  <ellipse cx="394.78" cy="311.23" rx="60.1" ry="61.95" fill="#e78825"/>
  <path d="M454.88,297.32s2.48,61.13-43.48,74.04l-24.27,3.2-13.57-5.35s18.02-7.47,35.3-14.84c17.29-7.37,46.89-51.02,46.01-57.05Z" fill="#d47122"/>
  <path d="M384.14,249.26s-9.08,25.79-22.74,30.37-18.65,4.56-18.65,4.56c0,0-3.74-13.12,11.44-20.89,15.18-7.77,29.95-14.04,29.95-14.04Z" fill="#d47122"/>
  <ellipse cx="390.71" cy="311.23" rx="65.76" ry="63.34" fill="none" stroke="#414042" stroke-miterlimit="10" stroke-width="4"/>
  <path d="M312.84,271.67s54.81,18.05,74.29-39.18c0,0-61.67-9.56-74.29,39.18Z" fill="#129a48"/>
  <path d="M308.84,270.68s64.87,19.32,78.29-38.2c0,0-63.22-23.22-78.29,38.2Z" fill="none" stroke="#414042" stroke-linejoin="round" stroke-width="4"/>
  <path d="M392.79,249.27s2.26-27.72-13.52-34.27l-3.9,4.62s16.39,9.07,17.41,29.65Z" fill="#414042" stroke="#414042" stroke-miterlimit="10" stroke-width="3"/>
</svg>