<?xml version="1.0" encoding="UTF-8"?>
<svg id="Layer_2" xmlns="http://www.w3.org/2000/svg" version="1.1" viewBox="0 0 193 189">
  <!-- Generator: Adobe Illustrator 30.1.0, SVG Export Plug-In . SVG Version: 2.1.1 Build 136)  -->
  <defs>
    <style>
      .st0 {
        fill: #e78825;
      }

      .st1 {
        stroke-linejoin: round;
      }

      .st1, .st2, .st3 {
        stroke: #414042;
      }

      .st1, .st3 {
        fill: none;
        stroke-width: 4px;
      }

      .st2 {
        fill: #414042;
        stroke-width: 3px;
      }

      .st2, .st3 {
        stroke-miterlimit: 10;
      }

      .st4 {
        fill: #129a48;
      }

      .st5 {
        fill: #d47122;
      }
    </style>
  </defs>
  <ellipse class="st0" cx="101.78" cy="107.23" rx="60.1" ry="61.95"/>
  <path class="st5" d="M161.88,93.32s2.48,61.13-43.48,74.04l-24.27,3.2-13.57-5.35s18.02-7.47,35.3-14.84c17.29-7.37,46.89-51.02,46.01-57.05h.01Z"/>
  <path class="st5" d="M91.14,45.26s-9.08,25.79-22.74,30.37-18.65,4.56-18.65,4.56c0,0-3.74-13.12,11.44-20.89,15.18-7.77,29.95-14.04,29.95-14.04h0Z"/>
  <ellipse class="st3" cx="97.71" cy="107.23" rx="65.76" ry="63.34"/>
  <path class="st4" d="M19.84,67.67s54.81,18.05,74.29-39.18c0,0-61.67-9.56-74.29,39.18Z"/>
  <path class="st1" d="M15.84,66.68s64.87,19.32,78.29-38.2c0,0-63.22-23.22-78.29,38.2Z"/>
  <path class="st2" d="M99.79,45.27s2.26-27.72-13.52-34.27l-3.9,4.62s16.39,9.07,17.41,29.65h0Z"/>
</svg>