<?xml version="1.0" encoding="UTF-8"?>
<svg id="Layer_8" xmlns="http://www.w3.org/2000/svg" version="1.1" viewBox="0 0 216 214">
  <!-- Generator: Adobe Illustrator 30.1.0, SVG Export Plug-In . SVG Version: 2.1.1 Build 136)  -->
  <defs>
    <style>
      .st0 {
        fill: #e78825;
      }

      .st1 {
        stroke-linejoin: round;
      }

      .st1, .st2, .st3 {
        stroke: #414042;
      }

      .st1, .st3 {
        fill: none;
        stroke-width: 4px;
      }

      .st2 {
        fill: #414042;
        stroke-width: 3px;
      }

      .st2, .st3 {
        stroke-miterlimit: 10;
      }

      .st4 {
        fill: #129a48;
      }

      .st5 {
        fill: #d47122;
      }
    </style>
  </defs>
  <g>
    <g>
      <path class="st0" d="M118.59,136.21c0,10.06,18.52,30.28,16.63,43.65-2.04,14.47-20.85,18.02-33.07,18.3-12.52.29-32.1-4.58-36.08-18.3-3.75-12.94,11.8-33.51,11.8-43.65s-15.54-30.71-11.8-43.65c3.98-13.73,23.56-18.59,36.08-18.3,12.23.28,31.04,3.83,33.07,18.3,1.88,13.37-16.63,33.61-16.63,43.65h0Z"/>
      <path class="st5" d="M129.36,112.41s-12.85,19.71-10.76,23.8,11.08,21.89,13.23,26.96,6.66,18.84-2.46,27.08-27.2,7.91-27.2,7.91c0,0,13.9,2.92,18.88-10.03s.07-40.4-2.39-40.23c-5.53.37-10.87-17.13-5.53-22.31s16.25-13.19,16.25-13.19h-.02Z"/>
      <path class="st5" d="M91.42,74.25s-1.93,17.23-8.76,23-17.17,2.1-17.17,2.1l.58-6.79s9.61-17.46,25.35-18.32h0Z"/>
      <path class="st3" d="M119.94,136.21c0,10.18,18.61,31.25,15.84,44.62-3.29,15.9-25.72,18.71-37.78,18.71s-34.28-3.15-38.74-18.71c-3.74-13.04,11.89-33.93,11.89-44.62s-15.63-31.58-11.89-44.62c4.46-15.57,26.46-18.71,38.74-18.71s34.49,2.81,37.78,18.71c2.77,13.37-15.84,34.46-15.84,44.62Z"/>
    </g>
    <path class="st4" d="M20.12,96.65s54.81,18.05,74.29-39.18c0,0-61.67-9.56-74.29,39.18Z"/>
    <path class="st1" d="M16.12,95.67s64.87,19.32,78.29-38.2c0,0-63.22-23.22-78.29,38.2Z"/>
    <path class="st2" d="M100.07,74.26s2.26-27.72-13.52-34.27l-3.9,4.62s16.39,9.07,17.41,29.65h0Z"/>
  </g>
  <path class="st0" d="M153.12,71.54c-.03-.18.09-.39.3-.59,6.89-5.55,22.61-11.35,28.49-2.19,1.89,2.63,1.68,6.1.09,8.82-1.35,2.42-3.99,4.03-6.76,3.99-2-.03-4.01-.74-5.55-2-.86-.74-1.44-1.55-2.31-2.35-.6-.57-1.23-1.11-1.9-1.59-2.21-1.69-6.88-2.46-9.51-3.03-.68-.16-1.38-.31-2.05-.5-.31-.09-.74-.24-.8-.54v-.02Z"/>
  <path class="st3" d="M147.22,73.83c-.03-.22.12-.48.38-.74,8.61-6.93,28.26-14.19,35.6-2.74,2.36,3.28,2.1,7.62.12,11.02-1.69,3.02-4.98,5.03-8.44,4.99-2.5-.04-5.01-.92-6.94-2.5-1.08-.93-1.8-1.94-2.89-2.94-.75-.71-1.53-1.38-2.38-1.99-2.77-2.11-8.59-3.07-11.88-3.79-.85-.2-1.73-.38-2.57-.62-.39-.12-.92-.3-1-.68v-.02h0Z"/>
  <path class="st0" d="M135.37,64.54c.27.03.56-.18.85-.53,7.5-11.4,14.93-33.76.75-42.25-4.09-2.75-9.21-2.11-13.07.64-3.44,2.35-5.55,6.67-5.21,11.05.26,3.16,1.51,6.28,3.54,8.61,1.19,1.3,2.45,2.14,3.72,3.45.9.9,1.77,1.85,2.56,2.87,2.73,3.36,3.89,7.61,5.01,11.73.31,1.06.6,2.16.95,3.21.17.49.43,1.15.88,1.22h.02,0Z"/>
  <path class="st3" d="M133.48,71.93c.33.03.7-.22,1.05-.62,9.36-13.21,18.74-39.05,1.29-48.72-5.02-3.14-11.35-2.36-16.15.85-4.27,2.74-6.91,7.74-6.53,12.79.29,3.64,1.81,7.22,4.29,9.9,1.46,1.49,3.01,2.45,4.57,3.94,1.11,1.02,2.16,2.11,3.14,3.28,3.34,3.84,4.73,8.74,6.08,13.48.37,1.22.72,2.49,1.14,3.69.21.56.52,1.32,1.08,1.4h.04Z"/>
</svg>