<?xml version="1.0" encoding="UTF-8"?>
<svg id="Layer_10" data-name="Layer 10" xmlns="http://www.w3.org/2000/svg" viewBox="0 0 259.2 259.2">
  <path d="M159.91,105.88c1.49,17.63-7.48,25.92-16.15,36.37,0,0-1.49,16.73-.6,24.5.9,7.77,17.65,11.13,17.8,31.14.14,20.02,0,42.42,0,42.42,0,0-7.03,9.8-28.54,9.68h-6.99c-21.51.12-28.54-9.68-28.54-9.68,0,0-.14-22.41,0-42.42.14-20.02,18.68-23.38,19.57-31.14s-.6-24.5-.6-24.5c-8.66-10.46-19.42-18.75-17.93-36.37,0,0,16.65-2.87,26.81,0,10.16,2.87,14.64,1.6,16.88,1.3s18.28-1.3,18.28-1.3Z" fill="#ee2c56"/>
  <path d="M149.89,135.28s-2.16.87-6.12,6.97l-.66,27.1s16.2,11.57,16.77,20.06c.57,8.48,2.96,48.22.57,50.91-2.39,2.68-18.23,10.34-23.39,10.01-5.15-.33-25.66-.27-29.56-2.62s-8.86-8.66-8.86-8.66c0,0,25.27,4.58,33.64,1.59,8.37-2.99,11.15-15.44,11.15-18.72s-8.29-55.94-9.04-69.51c-.75-13.57,14.61-19.07,16.11-19.37,1.49-.3-.61,2.25-.61,2.25Z" fill="#c32146"/>
  <path d="M136.01,59v24.5s22.41,5.08,23.9,22.71c1.49,17.63-7.48,25.92-16.15,36.37,0,0-1.49,16.73-.6,24.5.9,7.77,17.65,11.13,17.8,31.14.14,20.02,0,42.42,0,42.42,0,0-7.03,9.8-28.54,9.68h-6.99c-21.51.12-28.54-9.68-28.54-9.68,0,0-.14-22.41,0-42.42.14-20.02,18.68-23.38,19.57-31.14s-.6-24.5-.6-24.5c-8.66-10.46-19.42-18.75-17.93-36.37,1.49-17.63,23.9-22.71,23.9-22.71v-24.5s15.14,0,14.16,0Z" fill="none" stroke="#414042" stroke-linecap="round" stroke-linejoin="round" stroke-width="5"/>
  <path d="M136.71,33.89c-.16-.08-.26-.3-.3-.59-.42-8.83,4.16-24.96,15.03-24.3,3.23.03,5.92,2.24,7.18,5.12,1.16,2.52.9,5.59-.76,7.81-1.21,1.59-2.96,2.8-4.89,3.31-1.11.26-2.1.25-3.26.48-.81.15-1.62.34-2.41.6-2.67.79-6.04,4.1-8.06,5.9-.53.46-1.06.94-1.61,1.37-.26.2-.63.46-.91.33h-.01Z" fill="#ee2c56"/>
  <path d="M135.08,40c-.2-.1-.32-.38-.38-.74-.52-11.04,5.2-31.19,18.78-30.37,4.04.03,7.39,2.8,8.97,6.4,1.45,3.14,1.13,6.99-.95,9.76-1.51,1.99-3.7,3.5-6.11,4.13-1.38.32-2.63.31-4.08.6-1.01.18-2.02.42-3.01.74-3.33.99-7.55,5.13-10.06,7.37-.66.57-1.33,1.17-2.01,1.71-.33.25-.78.57-1.14.41h-.02Z" fill="none" stroke="#414042" stroke-miterlimit="10" stroke-width="4"/>
  <path d="M120.59,44.1c.18-.2.19-.56.07-1-4.79-12.78-18.46-31.97-33.69-25.52-4.63,1.68-7.14,6.19-7.19,10.93-.13,4.17,2.11,8.41,5.86,10.72,2.71,1.65,5.96,2.48,9.04,2.22,1.75-.19,3.18-.72,4.98-.98,1.26-.2,2.53-.34,3.83-.38,4.32-.23,8.44,1.35,12.43,2.87,1.04.38,2.1.79,3.15,1.13.5.15,1.18.33,1.51,0l.02-.02Z" fill="#ee2c56"/>
  <path d="M125.45,49.98c.22-.25.24-.69.12-1.21-5.15-15.35-20.49-38.16-38.59-29.77-5.5,2.21-8.6,7.78-8.84,13.54-.31,5.07,2.17,10.14,6.48,12.81,3.11,1.91,6.9,2.8,10.53,2.37,2.06-.3,3.75-.99,5.88-1.37,1.48-.29,2.98-.5,4.5-.6,5.08-.43,9.85,1.33,14.48,3.04,1.21.42,2.43.88,3.65,1.25.58.17,1.37.36,1.77-.05l.02-.02Z" fill="none" stroke="#414042" stroke-miterlimit="10" stroke-width="4"/>
</svg>