<?xml version="1.0" encoding="UTF-8"?>
<svg id="Layer_5" xmlns="http://www.w3.org/2000/svg" version="1.1" viewBox="0 0 145 233">
  <!-- Generator: Adobe Illustrator 30.1.0, SVG Export Plug-In . SVG Version: 2.1.1 Build 136)  -->
  <defs>
    <style>
      .st0 {
        fill: none;
        stroke: #414042;
        stroke-linecap: round;
        stroke-linejoin: round;
        stroke-width: 5px;
      }

      .st1 {
        fill: #c32146;
      }

      .st2 {
        fill: #ee2c56;
      }
    </style>
  </defs>
  <path class="st2" d="M96.64,70.98c1.49,17.63,2.69,25.99-5.98,36.45,0,0-1.49,16.73-.6,24.5s7.48,11.05,7.62,31.07c.14,20.02,0,42.42,0,42.42,0,0-7.03,9.8-28.54,9.68h-6.99c-21.51.12-28.54-9.68-28.54-9.68,0,0-.14-22.41,0-42.42.14-20.02,6.73-23.3,7.62-31.07.9-7.77-.6-24.5-.6-24.5-8.66-10.46-7.47-18.82-5.98-36.45,0,0,16.65-2.87,26.81,0s14.64,1.6,16.88,1.3,18.28-1.3,18.28-1.3h.02Z"/>
  <path class="st1" d="M97.69,87.52s-3.06,13.81-7.03,19.91l-.6,24.5s6.48,14.1,7.05,22.59,2.96,48.22.57,50.91-18.23,10.34-23.39,10.01-25.66-.27-29.56-2.62-11.12-7.4-11.12-7.4c0,0,27.54,3.31,35.9.32s11.15-15.44,11.15-18.72.65-48.44-.1-62.01,5.68-26.57,7.17-26.87,9.94-10.63,9.94-10.63h.02Z"/>
  <path class="st0" d="M72.74,24.11v24.5s22.41,5.08,23.9,22.71,2.69,25.99-5.98,36.45c0,0-1.49,16.73-.6,24.5.9,7.77,7.48,11.05,7.62,31.07s0,42.42,0,42.42c0,0-7.03,9.8-28.54,9.68h-6.99c-21.51.12-28.54-9.68-28.54-9.68,0,0-.14-22.41,0-42.42s6.73-23.3,7.62-31.07-.6-24.5-.6-24.5c-8.66-10.46-7.47-18.82-5.98-36.45s23.9-22.71,23.9-22.71v-24.5s15.14,0,14.16,0h.03Z"/>
</svg>